<svg width="20" height="22" viewBox="0 0 20 22" fill="none" xmlns="http://www.w3.org/2000/svg">
<path d="M16.25 5.40283L15.7336 14.0356C15.6016 16.2411 15.5357 17.3439 15.0007 18.1369C14.7361 18.5288 14.3956 18.8597 14.0006 19.1083C13.2017 19.6112 12.1325 19.6112 9.99392 19.6112C7.8526 19.6112 6.78192 19.6112 5.98254 19.1073C5.58733 18.8583 5.24667 18.5269 4.98223 18.1342C4.4474 17.3401 4.38287 16.2357 4.25384 14.027L3.75 5.40283" stroke="white" stroke-width="1.25" stroke-linecap="round"/>
<path d="M2.5 5.40256H17.5M13.3797 5.40256L12.8109 4.18988C12.433 3.38434 12.244 2.98156 11.9181 2.73037C11.8458 2.67465 11.7693 2.62508 11.6892 2.58216C11.3283 2.38867 10.8951 2.38867 10.0287 2.38867C9.14067 2.38867 8.69667 2.38867 8.32973 2.59028C8.24842 2.63496 8.17082 2.68653 8.09774 2.74446C7.76803 3.00583 7.58386 3.42334 7.21551 4.25837L6.71077 5.40256" stroke="white" stroke-width="1.25" stroke-linecap="round"/>
<path d="M7.91699 14.8747V9.70801" stroke="white" stroke-width="1.25" stroke-linecap="round"/>
<path d="M12.083 14.8747V9.70801" stroke="white" stroke-width="1.25" stroke-linecap="round"/>
</svg>
