<svg width="22" height="19" viewBox="0 0 22 19" fill="none" xmlns="http://www.w3.org/2000/svg">
<path d="M6.26318 17.3947C6.26318 16.3782 6.60901 15.35 7.45363 14.7846C8.46656 14.1063 9.68676 13.7104 11 13.7104C12.3133 13.7104 13.5335 14.1063 14.5464 14.7846C15.3911 15.35 15.7369 16.3782 15.7369 17.3947" stroke="black" stroke-width="2" stroke-linecap="round" stroke-linejoin="round"/>
<path d="M11 11.079C12.4534 11.079 13.6316 9.90076 13.6316 8.44737C13.6316 6.99399 12.4534 5.8158 11 5.8158C9.54661 5.8158 8.36841 6.99399 8.36841 8.44737C8.36841 9.90076 9.54661 11.079 11 11.079Z" stroke="black" stroke-width="2" stroke-linecap="round" stroke-linejoin="round"/>
<path d="M16.7896 8.44739C17.9581 8.44739 19.0438 8.84412 19.9447 9.5236C20.7084 10.0996 21.0001 11.0738 21.0001 12.0303V12.1316" stroke="black" stroke-width="2" stroke-linecap="round" stroke-linejoin="round"/>
<path d="M16.7896 5.81575C17.9523 5.81575 18.8949 4.87319 18.8949 3.71049C18.8949 2.54778 17.9523 1.60522 16.7896 1.60522C15.6269 1.60522 14.6843 2.54778 14.6843 3.71049C14.6843 4.87319 15.6269 5.81575 16.7896 5.81575Z" stroke="black" stroke-width="2" stroke-linecap="round" stroke-linejoin="round"/>
<path d="M5.21053 8.44739C4.04197 8.44739 2.95627 8.84412 2.05533 9.5236C1.29164 10.0996 1 11.0738 1 12.0303V12.1316" stroke="black" stroke-width="2" stroke-linecap="round" stroke-linejoin="round"/>
<path d="M5.21049 5.81575C6.37319 5.81575 7.31575 4.87319 7.31575 3.71049C7.31575 2.54778 6.37319 1.60522 5.21049 1.60522C4.04778 1.60522 3.10522 2.54778 3.10522 3.71049C3.10522 4.87319 4.04778 5.81575 5.21049 5.81575Z" stroke="black" stroke-width="2" stroke-linecap="round" stroke-linejoin="round"/>
</svg>
