<svg width="17" height="17" viewBox="0 0 17 17" fill="none" xmlns="http://www.w3.org/2000/svg">
<path fill-rule="evenodd" clip-rule="evenodd" d="M16.6667 8.33333C16.6667 12.9357 12.9357 16.6667 8.33333 16.6667C3.73096 16.6667 0 12.9357 0 8.33333C0 3.73096 3.73096 0 8.33333 0C12.9357 0 16.6667 3.73096 16.6667 8.33333ZM5.91699 9.0835V7.74983C5.91699 6.48375 5.91699 5.85072 6.29679 5.59485C6.67656 5.339 7.19594 5.62206 8.23475 6.1882L8.23491 6.18828L9.45841 6.85517C10.7086 7.5365 11.3337 7.87717 11.3337 8.41667C11.3337 8.95617 10.7086 9.29683 9.45841 9.97817L8.23491 10.6451L8.23476 10.6452C7.19594 11.2113 6.67656 11.4943 6.29679 11.2385C5.91699 10.9826 5.91699 10.3496 5.91699 9.0835Z" fill="#53DD6C"/>
</svg>
