<svg width="22" height="23" viewBox="0 0 22 23" fill="none" xmlns="http://www.w3.org/2000/svg">
<path d="M7.26998 2.64559L5.37573 3.43362C2.45858 4.64719 1 5.25397 1 6.25C1 7.24603 2.45858 7.85281 5.37574 9.06638L7.26998 9.85439C9.10578 10.6181 10.0238 11 11 11C11.9762 11 12.8942 10.6181 14.73 9.85439L16.6242 9.06638C19.5414 7.85281 21 7.24603 21 6.25C21 5.25397 19.5414 4.64719 16.6242 3.43362L14.73 2.64559C12.8942 1.88186 11.9762 1.5 11 1.5C10.0238 1.5 9.10578 1.88186 7.26998 2.64559Z" stroke="black" stroke-width="2" stroke-linecap="round" stroke-linejoin="round"/>
<path d="M20.7644 10.5973C20.9214 10.796 21 11.0032 21 11.231C21 12.2128 19.5414 12.811 16.6242 14.0073L14.73 14.7841C12.8942 15.5369 11.9762 15.9134 11 15.9134C10.0238 15.9134 9.10578 15.5369 7.26998 14.7841L5.37574 14.0073C2.45858 12.811 1 12.2128 1 11.231C1 11.0032 1.07852 10.796 1.23556 10.5973" stroke="black" stroke-width="2" stroke-linecap="round" stroke-linejoin="round"/>
<path d="M20.3074 15.7661C20.7691 16.0971 21 16.427 21 16.8176C21 17.7995 19.5414 18.3976 16.6242 19.5939L14.73 20.3707C12.8942 21.1236 11.9762 21.5 11 21.5C10.0238 21.5 9.10578 21.1236 7.26998 20.3707L5.37574 19.5939C2.45858 18.3976 1 17.7995 1 16.8176C1 16.427 1.23087 16.0971 1.6926 15.7661" stroke="black" stroke-width="2" stroke-linecap="round" stroke-linejoin="round"/>
</svg>
