<svg width="20" height="21" viewBox="0 0 20 21" fill="none" xmlns="http://www.w3.org/2000/svg">
<path d="M10.3333 18.8333C14.9357 18.8333 18.6667 15.1023 18.6667 10.5C18.6667 5.89759 14.9357 2.16663 10.3333 2.16663C5.73096 2.16663 2 5.89759 2 10.5C2 15.1023 5.73096 18.8333 10.3333 18.8333Z" stroke="black" stroke-width="1.25"/>
<path d="M7.91663 9.81091V11.189C7.91663 12.4973 7.91663 13.1514 8.29643 13.4159C8.67621 13.6802 9.19563 13.3877 10.2345 12.8027L11.458 12.1135C12.7082 11.4095 13.3333 11.0575 13.3333 10.5C13.3333 9.94249 12.7082 9.59047 11.458 8.88642L10.2345 8.19731C9.19563 7.61224 8.67621 7.3197 8.29643 7.5841C7.91663 7.84849 7.91663 8.50263 7.91663 9.81091Z" fill="black"/>
</svg>
