<svg width="17" height="17" viewBox="0 0 17 17" fill="none" xmlns="http://www.w3.org/2000/svg">
<path fill-rule="evenodd" clip-rule="evenodd" d="M16.6667 8.33333C16.6667 12.9357 12.9357 16.6667 8.33333 16.6667C3.73096 16.6667 0 12.9357 0 8.33333C0 3.73096 3.73096 0 8.33333 0C12.9357 0 16.6667 3.73096 16.6667 8.33333ZM7.25 5.83334C7.25 5.28106 6.80228 4.83334 6.25 4.83334C5.69772 4.83334 5.25 5.28106 5.25 5.83334V10.8333C5.25 11.3856 5.69772 11.8333 6.25 11.8333C6.80228 11.8333 7.25 11.3856 7.25 10.8333V5.83334ZM11.4167 5.83334C11.4167 5.28106 10.969 4.83334 10.4167 4.83334C9.86438 4.83334 9.41667 5.28106 9.41667 5.83334V10.8333C9.41667 11.3856 9.86438 11.8333 10.4167 11.8333C10.969 11.8333 11.4167 11.3856 11.4167 10.8333V5.83334Z" fill="#EF3E36"/>
</svg>
