<svg width="22" height="22" viewBox="0 0 22 22" fill="none" xmlns="http://www.w3.org/2000/svg">
<path d="M21 11C21 16.5228 16.5228 21 11 21C5.47715 21 1 16.5228 1 11C1 5.47715 5.47715 1 11 1C16.5228 1 21 5.47715 21 11Z" stroke="#160F29" stroke-width="2"/>
<path d="M13.75 8.5C13.75 10.0188 12.5188 11.25 11 11.25C9.4812 11.25 8.25 10.0188 8.25 8.5C8.25 6.98122 9.4812 5.75 11 5.75C12.5188 5.75 13.75 6.98122 13.75 8.5Z" stroke="#160F29" stroke-width="2"/>
<path d="M4.5 18.0001L5.0604 17.0194C5.95061 15.4616 7.60733 14.5001 9.40165 14.5001H12.5984C14.3926 14.5001 16.0493 15.4616 16.9395 17.0194L17.4999 18.0001" stroke="#160F29" stroke-width="2" stroke-linecap="round" stroke-linejoin="round"/>
</svg>
